<?xml version="1.0" standalone="no"?>
<!DOCTYPE svg PUBLIC "-//W3C//DTD SVG 20010904//EN"
 "http://www.w3.org/TR/2001/REC-SVG-20010904/DTD/svg10.dtd">
<svg version="1.0" xmlns="http://www.w3.org/2000/svg"
 width="80.000000pt" height="80.000000pt" viewBox="0 0 80.000000 80.000000"
 preserveAspectRatio="xMidYMid meet">

<g transform="translate(0.000000,80.000000) scale(0.100000,-0.100000)"
fill="#000000" stroke="none">
<path d="M343 723 c16 -4 17 -7 4 -21 -11 -13 -12 -23 -5 -42 l9 -25 19 23
c17 21 41 30 39 15 -3 -21 2 -43 11 -43 5 0 7 7 4 15 -4 8 -1 15 6 15 6 0 8 5
5 10 -3 6 1 10 9 10 9 0 16 -6 16 -14 0 -8 14 -24 30 -36 29 -20 30 -20 30 -2
0 10 -11 29 -25 42 -31 29 -32 44 -2 30 l22 -11 -22 19 c-17 15 -38 19 -95 20
-40 0 -65 -2 -55 -5z"/>
<path d="M223 668 c-35 -38 -51 -80 -62 -163 -7 -44 -17 -96 -23 -115 -6 -19
-13 -42 -15 -50 -4 -13 -5 -13 -14 0 -20 29 -2 -123 22 -184 17 -43 33 -66 62
-87 44 -32 62 -37 54 -15 -4 9 0 13 10 12 9 -2 20 -11 23 -22 5 -13 23 -22 63
-30 l56 -11 -1 49 c-1 37 3 52 18 63 18 14 18 14 -8 15 -33 0 -81 40 -83 69
-2 19 0 20 15 6 19 -18 44 -19 71 -4 23 12 16 29 -12 29 -11 0 -17 5 -14 10 3
6 15 10 26 10 10 0 19 5 19 10 0 6 -6 10 -14 10 -8 0 -13 8 -12 17 0 10 -9 22
-21 28 -13 5 -23 16 -23 23 0 10 -7 9 -30 -3 -61 -31 -103 -11 -88 43 7 28 11
32 24 21 19 -15 89 -15 109 1 18 15 19 42 3 58 -16 16 -105 16 -111 0 -2 -7
-7 -10 -11 -6 -4 3 2 39 14 80 12 40 24 82 27 93 6 20 6 20 -15 1 l-21 -18 12
31 c9 25 9 33 -2 43 -8 8 -11 8 -8 2 4 -7 0 -17 -7 -23 -12 -10 -13 -8 -9 8 7
27 1 26 -24 -1z m-61 -330 c-5 -7 -12 -22 -15 -33 -5 -20 -5 -20 -6 1 0 11 4
25 11 32 16 16 23 15 10 0z m202 -53 c3 -9 0 -15 -9 -15 -16 0 -27 14 -18 24
10 10 21 7 27 -9z"/>
<path d="M540 587 c0 -3 7 -18 15 -33 8 -16 15 -36 15 -44 0 -8 14 -42 30 -75
16 -33 30 -52 30 -42 0 10 -11 39 -24 65 -13 26 -29 64 -35 84 -10 31 -31 61
-31 45z"/>
<path d="M452 449 c-14 -22 -7 -59 11 -59 7 0 20 7 30 15 11 7 25 11 33 8 22
-8 16 15 -6 27 -11 6 -18 15 -15 21 4 5 -4 9 -17 9 -13 0 -29 -9 -36 -21z"/>
<path d="M481 314 c22 -24 23 -26 7 -38 -10 -7 -18 -16 -18 -19 0 -12 42 -2
56 14 14 15 12 19 -19 43 -44 33 -57 33 -26 0z"/>
<path d="M581 322 c-7 -13 -19 -41 -26 -63 -8 -21 -25 -54 -38 -72 -21 -28
-67 -145 -67 -170 0 -10 38 -3 82 15 15 5 26 14 23 18 -6 9 24 112 36 124 5 6
9 20 9 33 0 20 4 23 28 19 l27 -5 -22 16 c-14 9 -23 26 -24 42 0 14 -4 35 -8
46 -8 19 -8 19 -20 -3z"/>
</g>
</svg>
