<?xml version="1.0" standalone="no"?>
<!DOCTYPE svg PUBLIC "-//W3C//DTD SVG 20010904//EN"
 "http://www.w3.org/TR/2001/REC-SVG-20010904/DTD/svg10.dtd">
<svg version="1.0" xmlns="http://www.w3.org/2000/svg"
 width="40.000000pt" height="40.000000pt" viewBox="0 0 40.000000 40.000000"
 preserveAspectRatio="xMidYMid meet">

<g transform="translate(0.000000,40.000000) scale(0.100000,-0.100000)"
fill="#000000" stroke="none">
<path d="M5 391 c-3 -5 2 -43 11 -84 l17 -75 74 -11 c40 -6 83 -11 93 -11 11
0 20 -4 20 -10 0 -5 -9 -10 -20 -10 -10 0 -53 -5 -93 -11 l-74 -11 -17 -76
c-12 -53 -14 -78 -6 -86 14 -14 385 172 385 194 0 9 -68 50 -180 107 -183 94
-199 100 -210 84z"/>
</g>
</svg>
