<?xml version="1.0" standalone="no"?>
<!DOCTYPE svg PUBLIC "-//W3C//DTD SVG 20010904//EN"
 "http://www.w3.org/TR/2001/REC-SVG-20010904/DTD/svg10.dtd">
<svg version="1.0" xmlns="http://www.w3.org/2000/svg"
 width="80.000000pt" height="80.000000pt" viewBox="0 0 80.000000 80.000000"
 preserveAspectRatio="xMidYMid meet">

<g transform="translate(0.000000,80.000000) scale(0.100000,-0.100000)"
fill="#000000" stroke="none">
<path d="M354 775 c-4 -8 -12 -15 -19 -15 -11 0 -55 -33 -55 -42 0 -2 -25 -31
-55 -63 -63 -69 -67 -88 -35 -179 11 -33 17 -69 14 -85 -4 -16 -1 -32 5 -35 6
-4 11 0 11 11 1 10 5 64 9 121 12 137 41 182 86 132 22 -24 55 -25 140 -4 36
9 72 14 80 10 24 -9 45 -69 46 -128 0 -29 4 -73 9 -98 9 -42 9 -40 6 20 -2 36
-2 57 1 48 13 -51 47 14 37 70 -4 21 -3 33 3 29 5 -3 8 6 5 23 -2 16 -12 32
-21 35 -9 3 -23 20 -32 38 -9 17 -22 32 -30 32 -8 0 -13 8 -13 18 2 19 -11 23
-21 6 -5 -7 -13 -4 -25 8 -40 41 -57 49 -98 47 -23 -1 -39 2 -36 7 3 5 3 9 -1
9 -3 0 -8 -7 -11 -15z"/>
<path d="M270 439 c-12 -8 -12 -12 -2 -16 10 -4 10 -8 1 -19 -9 -11 -8 -14 5
-14 9 0 16 6 16 13 0 6 5 4 11 -5 12 -22 57 -24 65 -3 4 8 1 21 -5 29 -6 7 -9
15 -6 17 10 10 -71 8 -85 -2z"/>
<path d="M464 441 c3 -5 -1 -11 -9 -15 -30 -11 -17 -36 20 -36 19 0 35 4 35
10 0 5 8 7 18 4 14 -5 14 -3 -2 10 -18 15 -18 16 -2 16 9 0 14 5 11 10 -3 6
-22 10 -41 10 -19 0 -33 -4 -30 -9z"/>
<path d="M621 394 c0 -11 3 -14 6 -6 3 7 2 16 -1 19 -3 4 -6 -2 -5 -13z"/>
<path d="M353 265 c-19 -21 -16 -28 9 -22 12 4 27 3 32 -2 6 -4 22 -2 34 4 27
14 21 20 -28 28 -24 4 -39 2 -47 -8z"/>
<path d="M306 234 c-5 -14 -4 -15 9 -4 17 14 19 20 6 20 -5 0 -12 -7 -15 -16z"/>
<path d="M493 237 c6 -15 -3 -17 -77 -17 -93 0 -116 -5 -116 -26 0 -16 16 -19
25 -4 4 6 23 10 43 9 20 -1 52 1 71 6 29 6 37 4 52 -16 l19 -24 0 37 c0 20 -5
40 -12 44 -8 5 -9 2 -5 -9z"/>
<path d="M380 156 c7 -9 8 -20 3 -28 -9 -14 -53 -20 -53 -7 0 5 -8 13 -17 18
-29 15 -25 -33 4 -65 22 -24 29 -26 76 -20 28 4 53 8 54 10 1 1 0 12 -4 25 -4
15 -11 20 -22 16 -8 -3 -12 -3 -8 1 4 4 2 13 -4 21 -7 8 -8 13 -1 13 5 0 12 7
16 15 4 11 -2 15 -26 15 -25 0 -28 -2 -18 -14z"/>
</g>
</svg>
